<svg xmlns="http://www.w3.org/2000/svg" viewBox="0 0 16 16" width="16" height="16" fill="currentColor">
  <path d="M3 3v3h1.5V4.5H7V3H3z"/>
  <path d="M3 10v3h4v-1.5H4.5V10H3z"/>
  <polygon points="9,4 12,4 10.5,2"/>
  <polygon points="9,4 12,4 10.5,6"/>
  <polygon points="9,12 12,12 10.5,10"/>
  <polygon points="9,12 12,12 10.5,14"/>
  <line x1="7" y1="4" x2="9" y2="4" stroke="currentColor" stroke-width="1"/>
  <line x1="7" y1="12" x2="9" y2="12" stroke="currentColor" stroke-width="1"/>
  <path d="M14 7a2 2 0 01-2 2h-.3v-1h.3a1 1 0 000-2H11.5l-.2-.5.6-.4h.1a2 2 0 012 2z" opacity="0.7"/>
  <polygon points="12.5,9.5 14,8.5 12.5,7.5" opacity="0.7"/>
</svg>
